<?xml version="1.0" encoding="UTF-8" standalone="no"?>
<svg
   xmlns:dc="http://purl.org/dc/elements/1.1/"
   xmlns:cc="http://creativecommons.org/ns#"
   xmlns:rdf="http://www.w3.org/1999/02/22-rdf-syntax-ns#"
   xmlns:svg="http://www.w3.org/2000/svg"
   xmlns="http://www.w3.org/2000/svg"
   xmlns:sodipodi="http://sodipodi.sourceforge.net/DTD/sodipodi-0.dtd"
   xmlns:inkscape="http://www.inkscape.org/namespaces/inkscape"
   version="1.1"
   id="svg2"
   width="248.06947"
   height="246.0125"
   viewBox="0 0 248.06947 246.0125"
   sodipodi:docname="QR_code.svg"
   inkscape:version="1.0.1 (3bc2e813f5, 2020-09-07)"
   inkscape:export-filename="C:\Users\saman\Desktop\Research\Nanocamp\Figures\QR_code.png"
   inkscape:export-xdpi="1000"
   inkscape:export-ydpi="1000">
  <metadata
     id="metadata8">
    <rdf:RDF>
      <cc:Work
         rdf:about="">
        <dc:format>image/svg+xml</dc:format>
        <dc:type
           rdf:resource="http://purl.org/dc/dcmitype/StillImage" />
        <dc:title></dc:title>
      </cc:Work>
    </rdf:RDF>
  </metadata>
  <defs
     id="defs6" />
  <sodipodi:namedview
     pagecolor="#ffffff"
     bordercolor="#666666"
     borderopacity="1"
     objecttolerance="10"
     gridtolerance="10"
     guidetolerance="10"
     inkscape:pageopacity="0"
     inkscape:pageshadow="2"
     inkscape:window-width="1920"
     inkscape:window-height="986"
     id="namedview4"
     showgrid="false"
     inkscape:zoom="2.6666667"
     inkscape:cx="91.011715"
     inkscape:cy="134.52656"
     inkscape:window-x="-11"
     inkscape:window-y="-11"
     inkscape:window-maximized="1"
     inkscape:current-layer="g10" />
  <g
     inkscape:groupmode="layer"
     inkscape:label="Image"
     id="g10"
     transform="translate(0.49999987,-0.03033021)">
    <path
       style="fill:#000000"
       d="m 7.7831169,210.47614 v -28 h 28.0000001 28 v 28 28 h -28 -28.0000001 z m 48.0000001,0 v -20 h -19.5 -19.5 v 20 20 h 19.5 19.5 z m -32,0 v -12 h 12 12 v 12 12 h -12 -12 z m 48,20 v -8 h 2.8 c 4.08223,0 5.2,-1.71965 5.2,-8 0,-6.28035 -1.11777,-8 -5.2,-8 h -2.8 v -8 -8 h 4 c 3.71429,0 4,-0.2 4,-2.8 0,-3.55343 -1.64657,-5.2 -5.2,-5.2 -2.6,0 -2.8,-0.28571 -2.8,-4 v -4 h -12 -12 v -3.95619 -3.95619 l 7.145232,-0.29381 c 5.503514,-0.2263 7.397894,-0.6959 8.244886,-2.04381 1.601325,-2.54837 -0.406125,-5.18177 -4.240967,-5.56336 -2.945829,-0.29313 -3.149151,-0.56752 -3.149151,-4.25 0,-3.92608 -0.01073,-3.93664 -4,-3.93664 h -4 v -4 -4 h -4 -4 v -7.93664 -7.93664 l 3.14915,-0.31336 c 6.366483,-0.6335 6.366483,-6.99322 0,-7.62672 -2.68871,-0.26754 -3.14915,-0.71349 -3.14915,-3.05 0,-3.49246 -1.66446,-5.13664 -5.2,-5.13664 -2.59249,0 -2.8,0.29175 -2.8,3.93664 0,3.68248 -0.20332,3.95687 -3.14915,4.25 -6.36648,0.6335 -6.36648,6.99322 0,7.62672 l 3.14915,0.31336 v 11.93664 11.93664 h 4 4 v 4 4 h -4 -4 v 4 4 h 4 4 v 4 4 h -4 -4 v -4 -4 h -4 -4 v 4 4 h -8 -8.0000001 v -4 -4 h 8.0000001 8 v -4 -4 h 4 4 v -4 c 0,-3.98927 -0.0106,-4 -3.93664,-4 -3.68248,0 -3.95688,-0.20332 -4.25,-3.14915 -0.6335,-6.36648 -6.99322,-6.36648 -7.62672,0 -0.29312,2.94583 -0.56752,3.14915 -4.25,3.14915 H 7.7831169 v -7.93664 -7.93664 l 3.1491501,-0.31336 c 3.83268,-0.38138 5.84125,-3.01381 4.24489,-5.56336 -0.60266,-0.9625 -2.51286,-1.89101 -4.24489,-2.06336 -2.9362401,-0.29217 -3.1491501,-0.57523 -3.1491501,-4.18664 0,-3.61141 0.21291,-3.89447 3.1491501,-4.18664 6.36648,-0.6335 6.36648,-6.99322 0,-7.62672 -2.9458301,-0.29313 -3.1491501,-0.56752 -3.1491501,-4.25 v -3.93664 h 8.0000001 8 v -4.000004 -4 h 4 c 3.71429,0 4,-0.2 4,-2.8 0,-3.55343 -1.64657,-5.2 -5.2,-5.2 -2.6,0 -2.8,-0.28571 -2.8,-4 v -4 h -8 -8.0000001 v -4 -4 h 8.0000001 8 v 4 4 h 8 8 v -4 -4 h 12 12 v 4 c 0,3.71429 -0.2,4 -2.8,4 -3.553434,0 -5.2,1.64657 -5.2,5.2 0,2.6 0.285714,2.8 4,2.8 h 4 v 4 4 h -4 -4 v 4 4.000004 h 4 4 v 4 4 h -4 c -3.714286,0 -4,0.2 -4,2.8 0,3.55343 1.646566,5.2 5.2,5.2 2.6,0 2.8,0.28571 2.8,4 v 4 h 4 4 v 4 4 h -4 -4 v 4 4 h 8 8 v 3.93664 c 0,3.68248 -0.20332,3.95687 -3.14915,4.25 -3.834843,0.38159 -5.842293,3.01499 -4.240968,5.56336 0.846992,1.34791 2.741368,1.81751 8.244888,2.04381 l 7.14523,0.29381 v -4.04381 -4.04381 h 6.8 c 7.521233,0 9.200003,-0.94887 9.200003,-5.2 v -2.8 h -8.000003 -8 v -2.8 c 0,-3.55343 -1.64657,-5.2 -5.2,-5.2 -2.6,0 -2.8,-0.28571 -2.8,-4 0,-3.71429 0.2,-4 2.8,-4 3.55343,0 5.2,-1.64657 5.2,-5.2 0,-2.6 -0.28571,-2.8 -4,-2.8 h -4 v -4 -4 h 4 4 v -8 -8.000004 h 2.8 c 3.55343,0 5.2,-1.64657 5.2,-5.2 0,-2.79216 -0.019,-2.8 -6.8,-2.8 -3.95556,0 -7.30196,0.50196 -8,1.2 -0.69804,0.69804 -1.2,4.04444 -1.2,8 v 6.800004 h -4 -4 v -12.000004 -12 h 12 12 v -4 -4 h 4 4.000003 v -6.8 c 0,-7.52123 -0.94887,-9.2 -5.200003,-9.2 -2.6,0 -2.8,0.28571 -2.8,4 v 4 h -4 -4 v 4 4 h -4 -4 v -4 -4 h -4 -4 v -8 -8 h 4 4 v 8 8 h 4 4 v -4 -4 h 4 4 v -4 -4 h 6.800003 c 7.52123,0 9.2,-0.94887 9.2,-5.2 0,-2.4 0.4,-2.8 2.8,-2.8 3.55343,0 5.2,-1.64657 5.2,-5.2 0,-2.6 -0.28571,-2.8 -4,-2.8 h -4 v -4 -4 h 4 4 v 4 c 0,3.71429 0.2,4 2.8,4 3.55343,0 5.2,-1.64657 5.2,-5.2 0,-2.792157 0.019,-2.8 6.8,-2.8 7.52123,0 9.2,-0.948873 9.2,-5.2 0,-2.6 0.28571,-2.8 4,-2.8 h 4 v -4 -3.9999996 h 8 8 v 6.7999996 c 0,7.521225 0.94887,9.2 5.2,9.2 h 2.8 v 12 12 h -4 -4 v 4 4 h 4 4 v 8 8 h -2.8 c -3.55343,0 -5.2,1.64657 -5.2,5.2 0,2.6 -0.28571,2.8 -4,2.8 -3.71429,0 -4,0.2 -4,2.8 0,3.55343 1.64657,5.2 5.2,5.2 h 2.8 v 18.800004 c 0,20.26273 0.2299,21.2 5.2,21.2 2.6,0 2.8,0.28571 2.8,4 v 4 h 4 4 v 8 8 h 2.8 c 4.25113,0 5.2,-1.67877 5.2,-9.2 v -6.8 h 4 c 3.71429,0 4,0.2 4,2.8 0,1.54 0.54,3.34 1.2,4 0.66,0.66 2.46,1.2 4,1.2 2.59483,0 2.8,-0.28989 2.8,-3.95619 v -3.95619 l 7.14523,-0.29381 c 5.50352,-0.2263 7.3979,-0.6959 8.24489,-2.04381 0.7999,-1.27297 0.79902,-2.22703 -0.003,-3.5 -0.97737,-1.55085 -3.2812,-1.78091 -20.24489,-2.02159 l -19.14223,-0.2716 v -3.95236 -3.95236 l 15.14248,-0.27604 c 13.14875,-0.2397 15.28762,-0.50646 16.24488,-2.02605 0.80321,-1.27504 0.80321,-2.22496 0,-3.5 -0.95726,-1.51959 -3.09613,-1.78635 -16.24488,-2.02605 l -15.14248,-0.27604 v -3.97396 c 0,-3.96961 -0.004,-3.97395 -4,-3.97395 h -4 v -4.000004 -4 h 4 4 v -4 -4 h 4 4 v -8 -8 h 4 c 3.71429,0 4,0.2 4,2.8 0,1.54 0.54,3.34 1.2,4 0.66,0.66 2.46,1.2 4,1.2 2.6,0 2.8,-0.28571 2.8,-4 v -4 h 16 16 v 4 4 h -6.8 c -3.95556,0 -7.30196,0.50196 -8,1.2 -0.69583,0.69583 -1.2,4.03036 -1.2,7.93664 v 6.73664 l -3.14915,0.31336 c -3.83484,0.38159 -5.84229,3.01499 -4.24097,5.563364 0.84699,1.34791 2.74137,1.81751 8.24489,2.04381 l 7.14523,0.29381 v 3.89283 c 0,3.63334 -0.20992,3.91372 -3.14915,4.20619 -1.73203,0.17235 -3.64223,1.10086 -4.24489,2.06336 -1.59636,2.54955 0.41221,5.18198 4.24489,5.56336 l 3.14915,0.31336 v 11.93664 11.93664 h 4 4 v 8 8 h -2.8 c -3.55343,0 -5.2,1.64657 -5.2,5.2 0,2.6 -0.28571,2.8 -4,2.8 -3.71429,0 -4,-0.2 -4,-2.8 0,-4.9701 -0.93727,-5.2 -21.2,-5.2 h -18.8 v 2.8 c 0,4.62658 1.45561,5.2 13.2,5.2 h 10.8 v 2.8 c 0,4.25113 1.67877,5.2 9.2,5.2 h 6.8 v 6.8 c 0,7.52123 0.94887,9.2 5.2,9.2 2.6,0 2.8,-0.28571 2.8,-4 v -4 h 4 4 v 4 4 h -4 -4 v 4 4 h 4 4 v 4 4 h -4 c -3.71429,0 -4,0.2 -4,2.8 0,3.55343 1.64657,5.2 5.2,5.2 2.6,0 2.8,0.28571 2.8,4 v 4 h -6.8 c -7.52123,0 -9.2,0.94887 -9.2,5.2 0,2.6 0.28571,2.8 4,2.8 h 4 v 4 4 h -4 -4 v -4 -4 h -6.8 c -7.52123,0 -9.2,0.94887 -9.2,5.2 0,2.59249 -0.29175,2.8 -3.93664,2.8 -3.68248,0 -3.95687,-0.20332 -4.25,-3.14915 -0.6335,-6.36648 -6.99322,-6.36648 -7.62672,0 -0.29313,2.94583 -0.56752,3.14915 -4.25,3.14915 -3.64489,0 -3.93664,-0.20751 -3.93664,-2.8 0,-4.25113 -1.67877,-5.2 -9.2,-5.2 h -6.8 v -4 -4 h -8 -8 v 4 4 h 4 4 v 4 4 h -4 -4 v -4 -4 h -4 -4 v 4 4 h -4 -4 v -4 -4 h 4 4 v -4 -4 h -4 c -3.71429,0 -4,-0.2 -4,-2.8 0,-3.55343 -1.64657,-5.2 -5.2,-5.2 -2.6,0 -2.8,0.28571 -2.8,4 0,3.71429 -0.2,4 -2.8,4 -4.25113,0 -5.2,1.67877 -5.2,9.2 v 6.8 h -8 -8 v -4 -4 h -4.000003 -4 v 4 4 h -4 -4 v -4 c 0,-3.71429 -0.2,-4 -2.8,-4 -3.55343,0 -5.2,1.64657 -5.2,5.2 0,2.6 -0.28571,2.8 -4,2.8 h -4 z m 24,-8 v -8 h 2.8 c 3.553433,0 5.200003,-1.64657 5.200003,-5.2 0,-2.6 0.28571,-2.8 4,-2.8 3.71429,0 4,0.2 4,2.8 0,4.25113 1.67877,5.2 9.2,5.2 h 6.8 v -4 -4 h 8 8 v 8 8 h 4 4 v -8 -8 h 2.8 c 3.53554,0 5.2,-1.64418 5.2,-5.13664 0,-2.33651 0.46044,-2.78246 3.14915,-3.05 3.83636,-0.38174 5.84303,-3.01582 4.23821,-5.56336 -0.95726,-1.51959 -3.09613,-1.78635 -16.24488,-2.02605 l -15.14248,-0.27604 v -2.77396 c 0,-4.59829 -1.46864,-5.17395 -13.2,-5.17395 h -10.8 v -2.8 c 0,-3.55343 -1.64657,-5.2 -5.2,-5.2 -2.59249,0 -2.8,-0.29175 -2.8,-3.93664 0,-3.68248 0.20332,-3.95687 3.14915,-4.25 3.83617,-0.38172 5.84294,-3.01572 4.23855,-5.56336 -2.51076,-3.9869 -7.3877,-2.09067 -7.3877,2.87244 0,2.69049 -0.26005,2.87756 -4.000003,2.87756 -3.71429,0 -4,-0.2 -4,-2.8 0,-3.55343 -1.64657,-5.2 -5.2,-5.2 h -2.8 v 16 16 h -4 c -3.71429,0 -4,0.2 -4,2.8 0,3.55343 1.64657,5.2 5.2,5.2 h 2.8 v 16 16 h 4 4 z m 0,-20 v -4 h -4 -4 v -4 -4 h 4 4 v 4 4 h 4 4.000003 v -4 -4 h 4 4 v 4 c 0,3.71429 0.2,4 2.8,4 3.55343,0 5.2,-1.64657 5.2,-5.2 0,-2.6 0.28571,-2.8 4,-2.8 h 4 v 8 8 h -8 -8 v -4 -4 h -4 -4 v 4 4 h -4.000003 -4 z m 48.000003,0 v -4 h 4 4 v 4 4 h -4 -4 z m -33.03987,26.54804 c 1.5546,-1.87318 1.0116,-4.5366 -1.21013,-5.93574 -2.54764,-1.60439 -5.18164,0.40238 -5.56336,4.23855 -0.28751,2.88936 -0.0708,3.14915 2.62756,3.14915 1.6175,0 3.48317,-0.65338 4.14593,-1.45196 z m 63.83987,-7.74804 c 0.66,-0.66 1.2,-2.46 1.2,-4 0,-2.6 0.28571,-2.8 4,-2.8 3.71429,0 4,0.2 4,2.8 0,4.08223 1.71965,5.2 8,5.2 6.28035,0 8,-1.11777 8,-5.2 0,-2.59249 0.29175,-2.8 3.93664,-2.8 3.68248,0 3.95687,0.20332 4.25,3.14915 0.38172,3.83617 3.01572,5.84294 5.56336,4.23855 3.9591,-2.49325 2.09804,-7.3877 -2.80909,-7.3877 -2.4235,0 -2.8577,-0.4372 -3.12755,-3.14915 -0.6335,-6.36648 -6.99322,-6.36648 -7.62672,0 -0.29313,2.94583 -0.56752,3.14915 -4.25,3.14915 -3.64489,0 -3.93664,-0.20751 -3.93664,-2.8 0,-1.54 -0.54,-3.34 -1.2,-4 -1.63447,-1.63447 -19.96553,-1.63447 -21.6,0 -0.69804,0.69804 -1.2,4.04444 -1.2,8 0,6.78095 0.008,6.8 2.8,6.8 1.54,0 3.34,-0.54 4,-1.2 z m 57.2,-18.8 v -4 h -7.93664 -7.93664 l -0.31336,-3.14915 c -0.38172,-3.83617 -3.01572,-5.84294 -5.56336,-4.23855 -3.9869,2.51076 -2.09067,7.3877 2.87244,7.3877 2.48495,0 2.87756,0.38203 2.87756,2.8 0,4.25113 1.67877,5.2 9.2,5.2 h 6.8 z m -33.2,-5.2 c 1.63447,-1.63447 1.63447,-19.96553 0,-21.6 -1.63447,-1.63447 -19.96553,-1.63447 -21.6,0 -0.76667,0.76667 -1.2,4.66667 -1.2,10.8 0,6.13333 0.43333,10.03333 1.2,10.8 0.76667,0.76667 4.66667,1.2 10.8,1.2 6.13333,0 10.03333,-0.43333 10.8,-1.2 z m -14.8,-10.8 v -4 h 4 4 v 4 4 h -4 -4 z m -16.61143,-6.25 c 1.60329,-2.5479 -0.40372,-5.18168 -4.23942,-5.56336 l -3.14915,-0.31336 v -11.93664 -11.93664 h 4 c 3.71429,0 4,0.2 4,2.8 0,4.25113 1.67877,5.2 9.2,5.2 h 6.8 v -4 -4 h -4 -4 v -8 -8 h -2.8 c -3.55343,0 -5.2,1.64657 -5.2,5.2 0,2.6 -0.28571,2.8 -4,2.8 h -4 v -6.8 c 0,-7.52123 -0.94887,-9.2 -5.2,-9.2 -2.6,0 -2.8,-0.28571 -2.8,-4 0,-3.71429 0.2,-4 2.8,-4 4.53847,0 5.2,-1.52661 5.2,-12 0,-10.473394 -0.66153,-12.000004 -5.2,-12.000004 h -2.8 v -8 -8 h 4 c 3.71429,0 4,-0.2 4,-2.8 0,-4.25113 -1.67877,-5.2 -9.2,-5.2 h -6.8 v -4 c 0,-3.71429 0.2,-4 2.8,-4 3.55343,0 5.2,-1.64657 5.2,-5.2 0,-2.59249 0.29175,-2.8 3.93664,-2.8 3.68248,0 3.95687,0.20332 4.25,3.14915 0.6335,6.36648 6.99322,6.36648 7.62672,0 0.30518,-3.06694 0.20728,-3.14915 -3.75,-3.14915 h -4.06336 v -4 -4 h 4 4 v -6.8 c 0,-7.52122 -0.94887,-9.2 -5.2,-9.2 -2.79216,0 -2.8,-0.019 -2.8,-6.8 0,-7.521225 -0.94887,-9.2 -5.2,-9.2 -2.79216,0 -2.8,0.01905 -2.8,6.8 0,7.52122 0.94887,9.2 5.2,9.2 2.6,0 2.8,0.28571 2.8,4 v 4 h -14.8 c -10.17778,0 -15.17477,0.37478 -16,1.2 -0.84823,0.84823 -1.2,6.71111 -1.2,20 v 18.8 h -8 -8 v -4 c 0,-3.73995 0.18707,-4 2.87756,-4 4.13981,0 5.27275,-1.96966 4.92486,-8.56212 -0.3384,-6.4126 -2.32523,-8.85588 -5.55242,-6.828 -1.34791,0.84699 -1.81751,2.74137 -2.04381,8.24489 l -0.29381,7.14523 h -3.95619 c -3.94889,0 -3.95619,0.007 -3.95619,4 v 4 h -4.000003 -4 v 4 c 0,3.71429 0.2,4 2.8,4 3.553433,0 5.200003,-1.64657 5.200003,-5.2 0,-2.6 0.28571,-2.8 4,-2.8 3.71429,0 4,0.2 4,2.8 0,4.25113 1.67877,5.2 9.2,5.2 h 6.8 v 4 c 0,3.71429 -0.2,4 -2.8,4 -4.08223,0 -5.2,1.71965 -5.2,8.000004 0,6.28035 1.11777,8 5.2,8 2.6,0 2.8,0.28571 2.8,4 v 4 h -8 -8 v -2.8 c 0,-3.55343 -1.64657,-5.2 -5.2,-5.2 -2.59249,0 -2.8,-0.29175 -2.8,-3.93664 0,-3.68248 0.20332,-3.95687 3.14915,-4.25 3.83617,-0.38172 5.84294,-3.015724 4.23855,-5.563364 -2.51076,-3.9869 -7.3877,-2.09067 -7.3877,2.87244 0,2.484954 -0.38203,2.877564 -2.8,2.877564 -3.553433,0 -5.200003,1.64657 -5.200003,5.2 0,2.6 -0.28571,2.8 -4,2.8 h -4 v 4 4 h 4 4 v 6.8 c 0,7.52123 0.94887,9.2 5.200003,9.2 2.6,0 2.8,0.28571 2.8,4 v 4 h 4 c 3.71429,0 4,0.2 4,2.8 0,4.08223 1.71965,5.2 8,5.2 6.28035,0 8,-1.11777 8,-5.2 0,-2.6 0.28571,-2.8 4,-2.8 3.71429,0 4,0.2 4,2.8 0,3.55343 1.64657,5.2 5.2,5.2 2.6,0 2.8,0.28571 2.8,4 v 4 h -10.8 c -7.06667,0 -11.21481,0.41481 -12,1.2 -1.55804,1.55804 -1.55804,12.04196 0,13.6 0.66,0.66 3.72,1.2 6.8,1.2 6.28035,0 8,-1.11777 8,-5.2 v -2.8 h 8 8 v 4 c 0,3.71429 -0.2,4 -2.8,4 -3.13073,0 -5.2,1.59174 -5.2,4 0,3.40269 2.19199,4.07261 12.3761,3.78242 8.15481,-0.23237 10.10642,-0.59255 11.01247,-2.03242 z m -15.38857,-33.75 v -4 h -8 -8 v -4 c 0,-3.71429 0.2,-4 2.8,-4 3.55343,0 5.2,-1.64657 5.2,-5.2 v -2.8 h -8 -8 v 8 8 h -8 -8 v -4 -4 h -4 -4 v -4 -4 h 4 4 v 4 c 0,3.71429 0.2,4 2.8,4 3.55343,0 5.2,-1.64657 5.2,-5.2 0,-2.6 0.28571,-2.8 4,-2.8 h 4 v -4 -4 h 8 8 v 4 4 h 4 4 v 8 8 h 4 4 v 4 4 h -4 -4 z m -16,-40 v -4 h 4 4 v -4.000004 -4 h -4 -4 v -12 -12 h 4 4 v 12 12 h 4 4 v 4 4.000004 h -4 -4 v 4 4 h -4 -4 z m 0,-52.000004 v -8 h 8 8 v 4 c 0,3.71429 -0.2,4 -2.8,4 -3.55343,0 -5.2,1.64657 -5.2,5.2 0,2.6 -0.28571,2.8 -4,2.8 h -4 z M 78.743247,173.02418 c 1.5546,-1.87318 1.0116,-4.5366 -1.21013,-5.93574 -2.54764,-1.60439 -5.181637,0.40238 -5.563358,4.23855 -0.287509,2.88936 -0.07075,3.14915 2.627558,3.14915 1.6175,0 3.48317,-0.65338 4.14593,-1.45196 z m -16.16013,-23.74804 c 0.66,-0.66 1.2,-2.46 1.2,-4 0,-2.6 -0.285714,-2.8 -4,-2.8 h -4 v -4 -4 h 4 4 v -4 c 0,-3.71429 -0.2,-4 -2.8,-4 -3.553434,0 -5.2,1.64657 -5.2,5.2 0,2.4 -0.4,2.8 -2.8,2.8 -3.553434,0 -5.2,1.64657 -5.2,5.2 0,2.6 0.285714,2.8 4,2.8 h 4 v 4 c 0,3.71429 0.2,4 2.8,4 1.54,0 3.34,-0.54 4,-1.2 z m 152.592763,-1.05 c 1.59798,-2.54917 -0.41022,-5.18191 -4.24361,-5.56336 -2.87195,-0.28577 -3.14915,-0.0613 -3.14915,2.55 0,5.0736 4.85957,7.05441 7.39276,3.01336 z m 15.40724,1.05 c 0.66,-0.66 1.2,-2.46 1.2,-4 0,-2.4 -0.4,-2.8 -2.8,-2.8 -3.13073,0 -5.2,1.59174 -5.2,4 0,0.88 0.54,2.14 1.2,2.8 0.66,0.66 1.92,1.2 2.8,1.2 0.88,0 2.14,-0.54 2.8,-1.2 z m -198.800003,-42.8 v -4 h 8 8 v 2.8 c 0,3.55343 1.646566,5.2 5.2,5.2 2.6,0 2.8,-0.28571 2.8,-4 v -4 h -4 -4 v -4.000004 -4 h 4 4 v -4 -4 h -4 c -3.714286,0 -4,-0.2 -4,-2.8 0,-1.54 -0.54,-3.34 -1.2,-4 -0.66,-0.66 -2.46,-1.2 -4,-1.2 h -2.8 v 8 8 h -4 -4 v 4 4.000004 h -4 c -3.71429,0 -4,0.2 -4,2.8 0,3.55343 1.64657,5.2 5.2,5.2 2.6,0 2.8,-0.28571 2.8,-4 z m 175.388233,-6.25 c 1.60372,-2.547804 -0.4032,-5.181674 -4.23908,-5.563364 -2.68871,-0.26754 -3.14915,-0.71349 -3.14915,-3.05 0,-3.49246 -1.66446,-5.13664 -5.2,-5.13664 -2.6,0 -2.8,0.28571 -2.8,4 v 4 h -4 -4 v 4.03275 4.032754 l 11.14335,-0.28275 c 9.33041,-0.23675 11.32256,-0.56746 12.24488,-2.03275 z m 8.00453,-16.000004 c 1.59798,-2.54917 -0.41022,-5.18191 -4.24361,-5.56336 -2.87195,-0.28577 -3.14915,-0.0613 -3.14915,2.55 0,5.0736 4.85957,7.05441 7.39276,3.01336 z m 16.60724,6.25 v -4 h 4 4 v 4 4 h -4 -4 z m -224.0000031,-56 V 6.4761364 h 28.0000001 28 v 27.9999996 28 h -28 -28.0000001 z m 48.0000001,0 v -20 h -19.5 -19.5 v 20 20 h 19.5 19.5 z m -32,0 v -12 h 12 12 v 12 12 h -12 -12 z m 160.000003,0 V 6.4761364 h 28 28 v 27.9999996 28 h -28 -28 z m 48,0 v -20 h -19.5 -19.5 v 20 20 h 19.5 19.5 z m -32,0 v -12 h 12 12 v 12 12 h -12 -12 z m -128.000003,-12 V 6.4761364 h 12 12 v 6.7999996 c 0,7.521225 0.94887,9.2 5.200003,9.2 h 2.8 v 8 8 h -4.000003 c -3.71429,0 -4,-0.2 -4,-2.8 0,-3.55343 -1.64657,-5.2 -5.2,-5.2 -2.6,0 -2.8,0.28571 -2.8,4 v 4 h -8 -8 z m 15.81336,4.85085 c -0.38172,-3.836175 -3.01572,-5.842936 -5.56336,-4.238552 -4.0145,2.528142 -2.08336,7.387702 2.9358,7.387702 2.69831,0 2.91507,-0.25979 2.62756,-3.14915 z M 103.78312,10.476136 V 6.4761364 h 4 4 v 3.9999996 4 h -4 -4 z m 16,0 V 6.4761364 h 4 4 v 3.9999996 4 h -4 -4 z"
       id="path837" />
    <rect
       style="fill:none;fill-rule:evenodd;stroke:#000000;stroke-width:0.99774;stroke-miterlimit:4;stroke-dasharray:none;stroke-dashoffset:45.3543;paint-order:markers fill stroke"
       id="rect839"
       width="247.07173"
       height="245.01476"
       x="-0.001129889"
       y="0.5292002"
       ry="0" />
  </g>
</svg>
